<?xml version="1.0" encoding="UTF-8" standalone="no"?>
<svg
   xmlns:dc="http://purl.org/dc/elements/1.1/"
   xmlns:cc="http://creativecommons.org/ns#"
   xmlns:rdf="http://www.w3.org/1999/02/22-rdf-syntax-ns#"
   xmlns:svg="http://www.w3.org/2000/svg"
   xmlns="http://www.w3.org/2000/svg"
   xmlns:sodipodi="http://sodipodi.sourceforge.net/DTD/sodipodi-0.dtd"
   xmlns:inkscape="http://www.inkscape.org/namespaces/inkscape"
   id="Layer_1"
   data-name="Layer 1"
   viewBox="0 0 112 144"
   version="1.1"
   sodipodi:docname="bus.svg"
   width="112"
   height="144"
   inkscape:version="0.92.4 (5da689c313, 2019-01-14)">
  <metadata
     id="metadata17">
    <rdf:RDF>
      <cc:Work
         rdf:about="">
        <dc:format>image/svg+xml</dc:format>
        <dc:type
           rdf:resource="http://purl.org/dc/dcmitype/StillImage" />
        <dc:title>bus</dc:title>
      </cc:Work>
    </rdf:RDF>
  </metadata>
  <sodipodi:namedview
     pagecolor="#ffffff"
     bordercolor="#666666"
     borderopacity="1"
     objecttolerance="10"
     gridtolerance="10"
     guidetolerance="10"
     inkscape:pageopacity="0"
     inkscape:pageshadow="2"
     inkscape:window-width="716"
     inkscape:window-height="480"
     id="namedview15"
     showgrid="false"
     fit-margin-top="0"
     fit-margin-left="0"
     fit-margin-right="0"
     fit-margin-bottom="0"
     inkscape:zoom="1"
     inkscape:cx="109.5"
     inkscape:cy="72"
     inkscape:window-x="1128"
     inkscape:window-y="109"
     inkscape:window-maximized="0"
     inkscape:current-layer="Layer_1" />
  <defs
     id="defs4">
    <style
       id="style2">.cls-1{fill:none;}</style>
  </defs>
  <title
     id="title6">bus</title>
  <path
     d="m 8,138.08 a 5.92,5.92 0 0 0 5.92,5.92 h 4.16 A 5.92,5.92 0 0 0 24,138.08 V 128 H 8 Z m 80,0 a 5.92,5.92 0 0 0 5.92,5.92 h 4.16 A 5.92,5.92 0 0 0 104,138.08 V 128 H 88 Z M 106,0 H 6 A 6,6 0 0 0 0,6 V 120 H 112 V 6 A 6,6 0 0 0 106,0 Z M 28,8 h 56 v 8 H 28 Z m -11.15,96 a 8,8 0 1 1 7.93,-8 8,8 0 0 1 -7.93,8 z M 104,97 a 8,8 0 1 1 0,-2 z m 0,-25 H 8 V 24 h 96 z"
     id="path12"
     inkscape:connector-curvature="0" />
</svg>
