<?xml version="1.0" encoding="UTF-8" standalone="no"?>
<svg
   xmlns:dc="http://purl.org/dc/elements/1.1/"
   xmlns:cc="http://creativecommons.org/ns#"
   xmlns:rdf="http://www.w3.org/1999/02/22-rdf-syntax-ns#"
   xmlns:svg="http://www.w3.org/2000/svg"
   xmlns="http://www.w3.org/2000/svg"
   xmlns:sodipodi="http://sodipodi.sourceforge.net/DTD/sodipodi-0.dtd"
   xmlns:inkscape="http://www.inkscape.org/namespaces/inkscape"
   id="Layer_1"
   data-name="Layer 1"
   viewBox="0 0 83.5 71.510284"
   version="1.1"
   sodipodi:docname="car.svg"
   width="83.5"
   height="71.510284"
   inkscape:version="0.92.4 (5da689c313, 2019-01-14)">
  <metadata
     id="metadata11">
    <rdf:RDF>
      <cc:Work
         rdf:about="">
        <dc:format>image/svg+xml</dc:format>
        <dc:type
           rdf:resource="http://purl.org/dc/dcmitype/StillImage" />
        <dc:title>carshare</dc:title>
      </cc:Work>
    </rdf:RDF>
  </metadata>
  <defs
     id="defs9" />
  <sodipodi:namedview
     pagecolor="#ffffff"
     bordercolor="#666666"
     borderopacity="1"
     objecttolerance="10"
     gridtolerance="10"
     guidetolerance="10"
     inkscape:pageopacity="0"
     inkscape:pageshadow="2"
     inkscape:window-width="742"
     inkscape:window-height="812"
     id="namedview7"
     showgrid="false"
     fit-margin-top="0"
     fit-margin-left="0"
     fit-margin-right="0"
     fit-margin-bottom="0"
     inkscape:zoom="1.2291667"
     inkscape:cx="42.5"
     inkscape:cy="54.000286"
     inkscape:window-x="748"
     inkscape:window-y="102"
     inkscape:window-maximized="0"
     inkscape:current-layer="Layer_1" />
  <title
     id="title2">carshare</title>
  <path
     d="m 5.96,67.05 c 0.01647,2.48767 2.052434,4.48776 4.54,4.46 h 3 c 2.479759,0 4.49,-2.01024 4.49,-4.49 V 62.56 H 5.96 Z m 59.65,0 c 0.0165,2.46803 2.02191,4.46006 4.49,4.46 h 3 c 2.47976,0 4.49,-2.01024 4.49,-4.49 V 62.56 H 65.61 Z M 77.17,29.79 63.85,2.51 C 63.10348,0.97984 61.55254,0.006624 59.85,0 H 23.67 c -1.702538,0.0066 -3.25348,0.97984 -4,2.51 L 6.33,29.79 H 0 V 56.63 H 83.5 V 29.79 Z M 12.56,49.17 C 7.193224,49.2505 4.4296,42.78383 8.195646,38.96044 11.961693,35.13704 18.469396,37.80262 18.47,43.17 c 0.0333,3.29227 -2.6176,5.98354 -5.91,6 z M 54.68,25.32 C 50.79324,25.2344 47.06725,26.8705 44.5,29.79 H 12.29 L 23.11,8.17 H 60.39 L 71.21,29.79 H 64.9 C 62.32369,26.85964 58.58063,25.22251 54.68,25.32 Z m 17,23.85 C 66.31322,49.2505 63.5496,42.78383 67.31565,38.96044 71.08169,35.13704 77.5894,37.80262 77.59,43.17 c 0.0389,3.29454 -2.61525,5.98912 -5.91,6 z m -17,-38 c -5.64873,0 -8.4766,6.829058 -4.48283,10.82283 C 54.19094,25.9866 61.02,23.15873 61.02,17.51 61.0311,14.000707 58.18931,11.149983 54.68,11.15 Z"
     id="path4"
     inkscape:connector-curvature="0"
     sodipodi:nodetypes="ccsscccccsscccccccccccccccscccccccccccscccsccc" />
</svg>
