<?xml version="1.0" encoding="UTF-8" standalone="no"?>
<svg
   xmlns:dc="http://purl.org/dc/elements/1.1/"
   xmlns:cc="http://creativecommons.org/ns#"
   xmlns:rdf="http://www.w3.org/1999/02/22-rdf-syntax-ns#"
   xmlns:svg="http://www.w3.org/2000/svg"
   xmlns="http://www.w3.org/2000/svg"
   xmlns:sodipodi="http://sodipodi.sourceforge.net/DTD/sodipodi-0.dtd"
   xmlns:inkscape="http://www.inkscape.org/namespaces/inkscape"
   id="Layer_1"
   data-name="Layer 1"
   viewBox="0 0 65.369216 112.00999"
   version="1.1"
   sodipodi:docname="ridehail-simple.svg"
   width="65.369217"
   height="112.00999"
   inkscape:version="0.92.4 (5da689c313, 2019-01-14)">
  <metadata
     id="metadata11">
    <rdf:RDF>
      <cc:Work
         rdf:about="">
        <dc:format>image/svg+xml</dc:format>
        <dc:type
           rdf:resource="http://purl.org/dc/dcmitype/StillImage" />
        <dc:title>rideshare</dc:title>
      </cc:Work>
    </rdf:RDF>
  </metadata>
  <defs
     id="defs9" />
  <sodipodi:namedview
     pagecolor="#ffffff"
     bordercolor="#666666"
     borderopacity="1"
     objecttolerance="10"
     gridtolerance="10"
     guidetolerance="10"
     inkscape:pageopacity="0"
     inkscape:pageshadow="2"
     inkscape:window-width="1053"
     inkscape:window-height="823"
     id="namedview7"
     showgrid="false"
     fit-margin-top="0"
     fit-margin-left="0"
     fit-margin-right="0"
     fit-margin-bottom="0"
     inkscape:zoom="1.2291667"
     inkscape:cx="62.141436"
     inkscape:cy="53.359995"
     inkscape:window-x="475"
     inkscape:window-y="75"
     inkscape:window-maximized="0"
     inkscape:current-layer="Layer_1" />
  <title
     id="title2">rideshare</title>
  <path
     d="m 21.641437,28.65 c -0.953748,-0.03381 -1.889888,0.262932 -2.65,0.84 L 5.4114363,39.34 0.14143626,59.38 c -0.59632339,2.250915 0.7478405,4.558396 3.00000004,5.15 0.3519341,0.09568 0.715301,0.142787 1.08,0.14 1.911177,-0.0043 3.5808872,-1.292465 4.07,-3.14 l 4.5500007,-17.25 4.36,-2.76 v 66 c 0,5.93333 8.9,5.93333 8.9,0 V 69.14 h 2.87 v 38.42 c 0,5.93333 8.9,5.93333 8.9,0 V 28.65 Z M 27.381437,0 C 16.422545,0 10.936298,13.248804 18.684465,20.996972 26.432633,28.745139 39.681437,23.258892 39.681437,12.3 39.659396,5.5225238 34.158949,0.03996416 27.381437,0.04 Z m 37.3,16.27 c -1.279476,-1.945425 -3.892884,-2.486902 -5.84,-1.21 l -17.7,13.06 v 10.09 l 22.33,-16.06 c 1.940511,-1.28281 2.481068,-3.891778 1.21,-5.84 z"
     id="path4"
     inkscape:connector-curvature="0"
     sodipodi:nodetypes="cccccccccssccsscccscccccccccc" />
</svg>
