<?xml version="1.0" encoding="UTF-8" standalone="no"?>
<svg
   xmlns:dc="http://purl.org/dc/elements/1.1/"
   xmlns:cc="http://creativecommons.org/ns#"
   xmlns:rdf="http://www.w3.org/1999/02/22-rdf-syntax-ns#"
   xmlns:svg="http://www.w3.org/2000/svg"
   xmlns="http://www.w3.org/2000/svg"
   xmlns:sodipodi="http://sodipodi.sourceforge.net/DTD/sodipodi-0.dtd"
   xmlns:inkscape="http://www.inkscape.org/namespaces/inkscape"
   id="Layer_1"
   data-name="Layer 1"
   viewBox="0 0 123.80039 112.01"
   version="1.1"
   sodipodi:docname="ridehail.svg"
   width="123.80039"
   height="112.01"
   inkscape:version="0.92.4 (5da689c313, 2019-01-14)">
  <metadata
     id="metadata11">
    <rdf:RDF>
      <cc:Work
         rdf:about="">
        <dc:format>image/svg+xml</dc:format>
        <dc:type
           rdf:resource="http://purl.org/dc/dcmitype/StillImage" />
        <dc:title>rideshare</dc:title>
      </cc:Work>
    </rdf:RDF>
  </metadata>
  <defs
     id="defs9" />
  <sodipodi:namedview
     pagecolor="#ffffff"
     bordercolor="#666666"
     borderopacity="1"
     objecttolerance="10"
     gridtolerance="10"
     guidetolerance="10"
     inkscape:pageopacity="0"
     inkscape:pageshadow="2"
     inkscape:window-width="1053"
     inkscape:window-height="823"
     id="namedview7"
     showgrid="false"
     fit-margin-top="0"
     fit-margin-left="0"
     fit-margin-right="0"
     fit-margin-bottom="0"
     inkscape:zoom="1.2291667"
     inkscape:cx="62.140392"
     inkscape:cy="53.36"
     inkscape:window-x="475"
     inkscape:window-y="75"
     inkscape:window-maximized="0"
     inkscape:current-layer="Layer_1" />
  <title
     id="title2">rideshare</title>
  <path
     d="m 109.79039,81.65 a 3.52,3.52 0 0 0 3.52,3.52 h 2.32 a 3.53,3.53 0 0 0 3.51,-3.52 v -3.5 h -9.36 z m -46.809998,0 a 3.53,3.53 0 0 0 3.52,3.52 h 2.32 a 3.52,3.52 0 0 0 3.52,-3.52 v -3.5 h -9.36 z m 55.879998,-29.24 -10.45,-21.4 a 3.51,3.51 0 0 0 -3.16,-2 H 76.880392 a 3.51,3.51 0 0 0 -3.16,2 l -10.45,21.43 h -5 V 73.5 H 123.80039 V 52.44 Z M 68.140392,67.65 a 4.68,4.68 0 1 1 4.64,-4.68 4.66,4.66 0 0 1 -4.64,4.68 z M 100.50039,48.42 a 10.15,10.15 0 0 0 -8.409998,4 h -24.14 l 8.49,-17 h 29.249998 l 8.49,17 h -5.24 a 10.17,10.17 0 0 0 -8.42,-4 z m 14,19.23 a 4.68,4.68 0 1 1 4.64,-4.68 4.66,4.66 0 0 1 -4.59,4.68 z m -14,-30.35 a 5,5 0 1 0 5,5 5,5 0 0 0 -4.98,-5 z M 21.640392,28.65 a 4.14,4.14 0 0 0 -2.65,0.84 l -13.5800004,9.85 -5.27,20.04 a 4.21,4.21 0 0 0 3,5.15 4,4 0 0 0 1.08,0.14 4.22,4.22 0 0 0 4.07,-3.14 l 4.5500004,-17.25 4.36,-2.76 v 66 a 4.45,4.45 0 0 0 8.9,0 V 69.14 h 2.87 v 38.42 a 4.45,4.45 0 0 0 8.9,0 V 28.65 Z m 5.74,-28.65 a 12.3,12.3 0 1 0 12.3,12.3 12.3,12.3 0 0 0 -12.3,-12.26 z m 37.3,16.27 a 4.22,4.22 0 0 0 -5.84,-1.21 l -17.7,13.06 v 10.09 l 22.33,-16.06 a 4.23,4.23 0 0 0 1.21,-5.84 z"
     id="path4"
     inkscape:connector-curvature="0" />
</svg>
