<?xml version="1.0" encoding="UTF-8" standalone="no"?>
<svg
   xmlns:dc="http://purl.org/dc/elements/1.1/"
   xmlns:cc="http://creativecommons.org/ns#"
   xmlns:rdf="http://www.w3.org/1999/02/22-rdf-syntax-ns#"
   xmlns:svg="http://www.w3.org/2000/svg"
   xmlns="http://www.w3.org/2000/svg"
   xmlns:sodipodi="http://sodipodi.sourceforge.net/DTD/sodipodi-0.dtd"
   xmlns:inkscape="http://www.inkscape.org/namespaces/inkscape"
   id="Layer_1"
   data-name="Layer 1"
   viewBox="0 0 74.000549 69.970009"
   version="1.1"
   sodipodi:docname="scooters.svg"
   width="74.000549"
   height="69.970009"
   inkscape:version="0.92.4 (5da689c313, 2019-01-14)">
  <metadata
     id="metadata17">
    <rdf:RDF>
      <cc:Work
         rdf:about="">
        <dc:format>image/svg+xml</dc:format>
        <dc:type
           rdf:resource="http://purl.org/dc/dcmitype/StillImage" />
        <dc:title>dockless_scooters</dc:title>
      </cc:Work>
    </rdf:RDF>
  </metadata>
  <sodipodi:namedview
     pagecolor="#ffffff"
     bordercolor="#666666"
     borderopacity="1"
     objecttolerance="10"
     gridtolerance="10"
     guidetolerance="10"
     inkscape:pageopacity="0"
     inkscape:pageshadow="2"
     inkscape:window-width="742"
     inkscape:window-height="480"
     id="namedview15"
     showgrid="false"
     fit-margin-top="0"
     fit-margin-left="0"
     fit-margin-right="0"
     fit-margin-bottom="0"
     inkscape:zoom="1.2291667"
     inkscape:cx="35"
     inkscape:cy="9.0600074"
     inkscape:window-x="0"
     inkscape:window-y="0"
     inkscape:window-maximized="0"
     inkscape:current-layer="Layer_1" />
  <defs
     id="defs4">
    <style
       id="style2">.cls-1{fill:none;}</style>
  </defs>
  <title
     id="title6">dockless_scooters</title>
  <path
     d="m 1.63,62.59 a 8.09,8.09 0 0 0 7.93,7 h 0.06 a 8.07,8.07 0 0 0 8,-6.93 L 17.68,62.23 1.61,62.11 Z M 71.24,53.17 A 9.59,9.59 0 0 0 56,55.37 L 18.18,55.1 A 9.6,9.6 0 0 0 13.76,50.84 L 22.3,5.46 29.77,6.91 30.67,2.16 18.4,0 17.92,0.82 8.92,49.97 A 9.59,9.59 0 0 0 0,59.45 v 0.38 l 74,0.53 v -0.38 a 9.53,9.53 0 0 0 -2.76,-6.81 z m -14.84,9.8 a 8.09,8.09 0 0 0 7.93,7 h 0.06 a 8.07,8.07 0 0 0 8,-6.93 l 0.06,-0.43 -16.07,-0.12 z"
     id="path10"
     inkscape:connector-curvature="0" />
</svg>
