<?xml version="1.0" encoding="UTF-8" standalone="no"?>
<svg
   xmlns:dc="http://purl.org/dc/elements/1.1/"
   xmlns:cc="http://creativecommons.org/ns#"
   xmlns:rdf="http://www.w3.org/1999/02/22-rdf-syntax-ns#"
   xmlns:svg="http://www.w3.org/2000/svg"
   xmlns="http://www.w3.org/2000/svg"
   xmlns:sodipodi="http://sodipodi.sourceforge.net/DTD/sodipodi-0.dtd"
   xmlns:inkscape="http://www.inkscape.org/namespaces/inkscape"
   id="Layer_1"
   data-name="Layer 1"
   viewBox="0 0 77.257721 141.8544"
   version="1.1"
   sodipodi:docname="walking.svg"
   width="77.257721"
   height="141.8544"
   inkscape:version="0.92.4 (5da689c313, 2019-01-14)">
  <metadata
     id="metadata15">
    <rdf:RDF>
      <cc:Work
         rdf:about="">
        <dc:format>image/svg+xml</dc:format>
        <dc:type
           rdf:resource="http://purl.org/dc/dcmitype/StillImage" />
        <dc:title>walking</dc:title>
      </cc:Work>
    </rdf:RDF>
  </metadata>
  <sodipodi:namedview
     pagecolor="#ffffff"
     bordercolor="#666666"
     borderopacity="1"
     objecttolerance="10"
     gridtolerance="10"
     guidetolerance="10"
     inkscape:pageopacity="0"
     inkscape:pageshadow="2"
     inkscape:window-width="742"
     inkscape:window-height="480"
     id="namedview13"
     showgrid="false"
     fit-margin-top="0"
     fit-margin-left="0"
     fit-margin-right="0"
     fit-margin-bottom="0"
     inkscape:zoom="1.2291667"
     inkscape:cx="38.487976"
     inkscape:cy="70.864403"
     inkscape:window-x="883"
     inkscape:window-y="140"
     inkscape:window-maximized="0"
     inkscape:current-layer="Layer_1" />
  <defs
     id="defs4">
    <style
       id="style2">.cls-1{fill:none;}</style>
  </defs>
  <title
     id="title6">walking</title>
  <path
     d="m 74.697976,72.52 -20.05,-13.17 v 12.64 l 14.23,9.35 a 5.3,5.3 0 1 0 5.82,-8.85 z m -35.27,-41.62 a 15.45,15.45 0 1 0 -15.45,-15.45 15.45,15.45 0 0 0 15.45,15.45 z m 29.51,69.29 -19.36,-14.62 V 46.35 l -14.69,-9.61 v 0 a 5.27,5.27 0 0 0 -6,0.29 l -20.0499997,15.33 -6.65,25.17 a 5.32,5.32 0 0 0 3.77,6.46 5.82,5.82 0 0 0 1.36,0.17 5.31,5.31 0 0 0 5.1699997,-3.92 l 5.71,-21.66 8.48,-6.48 v 26.67 l 0.06,-0.08 a 5.25,5.25 0 0 0 2.09,4.44 l 30.21,22.86 4.72,29.22 a 5.3,5.3 0 0 0 5.24,4.58 5.94,5.94 0 0 0 0.72,-0.05 5.3,5.3 0 0 0 4.53,-6 z m -45.83,8.55 -21.8699997,24.41 a 5.3,5.3 0 0 0 7.89,7.07 l 23.8499997,-26.62 3.3,-17.81 -9.45,-7.13 z"
     id="path8"
     inkscape:connector-curvature="0" />
</svg>
