<?xml version="1.0" encoding="UTF-8" standalone="no"?>
<svg
   xmlns:dc="http://purl.org/dc/elements/1.1/"
   xmlns:cc="http://creativecommons.org/ns#"
   xmlns:rdf="http://www.w3.org/1999/02/22-rdf-syntax-ns#"
   xmlns:svg="http://www.w3.org/2000/svg"
   xmlns="http://www.w3.org/2000/svg"
   xmlns:sodipodi="http://sodipodi.sourceforge.net/DTD/sodipodi-0.dtd"
   xmlns:inkscape="http://www.inkscape.org/namespaces/inkscape"
   id="Layer_1"
   data-name="Layer 1"
   viewBox="0 0 30 30"
   version="1.1"
   sodipodi:docname="ridehail.svg"
   inkscape:version="0.92.4 (5da689c313, 2019-01-14)"
   width="30"
   height="30">
  <metadata
     id="metadata25">
    <rdf:RDF>
      <cc:Work
         rdf:about="">
        <dc:format>image/svg+xml</dc:format>
        <dc:type
           rdf:resource="http://purl.org/dc/dcmitype/StillImage" />
        <dc:title>bus</dc:title>
      </cc:Work>
    </rdf:RDF>
  </metadata>
  <sodipodi:namedview
     pagecolor="#ffffff"
     bordercolor="#666666"
     borderopacity="1"
     objecttolerance="10"
     gridtolerance="10"
     guidetolerance="10"
     inkscape:pageopacity="0"
     inkscape:pageshadow="2"
     inkscape:window-width="1716"
     inkscape:window-height="842"
     id="namedview23"
     showgrid="false"
     inkscape:zoom="2"
     inkscape:cx="-187.38287"
     inkscape:cy="-6.3143402"
     inkscape:window-x="118"
     inkscape:window-y="21"
     inkscape:window-maximized="0"
     inkscape:current-layer="Layer_1"
     fit-margin-top="0"
     fit-margin-left="0"
     fit-margin-right="0"
     fit-margin-bottom="0" />
  <defs
     id="defs12">
    <style
       id="style10">.cls-1{fill:none;}</style>
  </defs>
  <title
     id="title14">bus</title>
  <circle
     style="fill:#eaeaea;fill-opacity:1"
     id="path27"
     cx="15.223774"
     cy="15"
     r="15" />
  <circle
     style="fill:none;fill-opacity:1;stroke:#4298b5;stroke-width:4;stroke-miterlimit:4;stroke-dasharray:none;stroke-opacity:1"
     id="path837"
     cx="15"
     cy="15"
     r="13" />
  <path
     sodipodi:nodetypes="cccccccccssccsscccscccccccccc"
     inkscape:connector-curvature="0"
     id="path4"
     d="m 13.748277,10.72951 c -0.15129,-0.0058 -0.299785,0.04343 -0.420357,0.13881 l -2.154133,1.627741 -0.835956,3.311674 c -0.0946,0.371972 0.118628,0.753292 0.475875,0.851061 0.0558,0.01577 0.113467,0.02356 0.171314,0.02317 0.303165,-5.36e-4 0.568021,-0.213591 0.645609,-0.518903 l 0.721747,-2.850609 0.691601,-0.456099 v 10.906714 c 0,0.980504 1.411763,0.980504 1.411763,0 v -6.342427 h 0.455257 v 6.349038 c 0,0.980495 1.41177,0.980495 1.41177,0 V 10.72951 Z M 14.658783,5.995 c -1.738353,0 -2.608615,2.1894089 -1.37956,3.469822 1.229054,1.280403 3.330658,0.373783 3.330658,-1.4372077 C 16.606527,6.907618 15.73387,6.0016017 14.658783,6.0016114 Z m 5.916734,2.688673 C 20.372554,8.3621867 19.958,8.2727039 19.649141,8.483714 l -2.807671,2.158212 v 1.667399 l 3.542108,-2.65396 c 0.307814,-0.211994 0.393558,-0.643137 0.191939,-0.965081 z"
     style="fill:#00205b;fill-opacity:1;stroke-width:0.16190545" />
</svg>
