<?xml version="1.0" encoding="UTF-8" standalone="no"?>
<svg
   xmlns:dc="http://purl.org/dc/elements/1.1/"
   xmlns:cc="http://creativecommons.org/ns#"
   xmlns:rdf="http://www.w3.org/1999/02/22-rdf-syntax-ns#"
   xmlns:svg="http://www.w3.org/2000/svg"
   xmlns="http://www.w3.org/2000/svg"
   xmlns:sodipodi="http://sodipodi.sourceforge.net/DTD/sodipodi-0.dtd"
   xmlns:inkscape="http://www.inkscape.org/namespaces/inkscape"
   id="Layer_1"
   data-name="Layer 1"
   viewBox="0 0 30 30"
   version="1.1"
   sodipodi:docname="rolling.svg"
   inkscape:version="0.92.2 5c3e80d, 2017-08-06"
   width="30"
   height="30">
  <metadata
     id="metadata25">
    <rdf:RDF>
      <cc:Work
         rdf:about="">
        <dc:format>image/svg+xml</dc:format>
        <dc:type
           rdf:resource="http://purl.org/dc/dcmitype/StillImage" />
        <dc:title>bus</dc:title>
      </cc:Work>
    </rdf:RDF>
  </metadata>
  <sodipodi:namedview
     pagecolor="#ffffff"
     bordercolor="#666666"
     borderopacity="1"
     objecttolerance="10"
     gridtolerance="10"
     guidetolerance="10"
     inkscape:pageopacity="0"
     inkscape:pageshadow="2"
     inkscape:window-width="1602"
     inkscape:window-height="941"
     id="namedview23"
     showgrid="false"
     inkscape:zoom="2"
     inkscape:cx="-16.88287"
     inkscape:cy="-6.3143402"
     inkscape:window-x="8"
     inkscape:window-y="10"
     inkscape:window-maximized="0"
     inkscape:current-layer="Layer_1"
     fit-margin-top="0"
     fit-margin-left="0"
     fit-margin-right="0"
     fit-margin-bottom="0" />
  <defs
     id="defs12">
    <style
       id="style10">.cls-1{fill:none;}</style>
    <style
       id="style2">.cls-1{fill:none;}</style>
  </defs>
  <title
     id="title14">bus</title>
  <circle
     style="fill:#eaeaea;fill-opacity:1"
     id="path27"
     cx="15.223774"
     cy="15"
     r="15" />
  <circle
     style="fill:none;fill-opacity:1;stroke:#616161;stroke-width:4;stroke-miterlimit:4;stroke-dasharray:none;stroke-opacity:1"
     id="path837"
     cx="15"
     cy="15"
     r="13" />
  <path
     style="fill:#00205b;fill-opacity:1;stroke-width:0.01687789"
     d="m 21.76905,15.33485 -0.478724,5.83747 c -0.122466,1.5104 -2.371361,1.30258 -2.248896,-0.18184 l 0.371105,-4.54603 -1.52524,0.0854 c 0.374814,0.76819 0.586346,1.62915 0.586346,2.54207 0,1.52895 -0.59748,2.92059 -1.569774,3.95226 l -1.458441,-1.45844 c 2.148696,-2.36393 0.486146,-6.20487 -2.746176,-6.20487 -0.961161,0 -1.836969,0.3674 -2.493824,0.96487 L 8.746984,14.8673 c 0.816431,-0.76818 1.859235,-1.30258 3.020793,-1.49184 l 2.794419,-3.18037 -1.580906,-0.92034 -1.914901,1.70709 c -1.113314,0.99456 -2.62,-0.68655 -1.502974,-1.68482 l 2.523512,-2.2526 c 0.363683,-0.32658 0.894363,-0.37853 1.317422,-0.1336 0,0 5.169489,3.00223 5.176912,3.00966 0.601189,0.37481 0.768186,1.33597 0.226374,1.95201 l -2.167252,2.46784 3.937421,-0.21895 c 0.686544,-0.0408 1.246911,0.53439 1.191246,1.21352 z M 19.36058,9.61983 c 1.042805,0 1.888924,-0.84612 1.888924,-1.88892 0,-1.04281 -0.846119,-1.88892 -1.888924,-1.88892 -1.042803,0 -1.888922,0.84611 -1.888922,1.88892 0,1.0428 0.846119,1.88892 1.888922,1.88892 z m -6.657619,13.16309 c -2.991104,0 -4.727875,-3.36221 -3.069036,-5.79295 L 8.160639,15.51669 c -0.771898,0.976 -1.232068,2.21178 -1.232068,3.55147 0,4.85034 5.592549,7.47405 9.329574,4.54603 l -1.473286,-1.47328 c -0.593768,0.4045 -1.31,0.64201 -2.081898,0.64201 z"
     id="path12"
     inkscape:connector-curvature="0" />
</svg>
