<?xml version="1.0" encoding="UTF-8" standalone="no"?>
<svg
   xmlns:dc="http://purl.org/dc/elements/1.1/"
   xmlns:cc="http://creativecommons.org/ns#"
   xmlns:rdf="http://www.w3.org/1999/02/22-rdf-syntax-ns#"
   xmlns:svg="http://www.w3.org/2000/svg"
   xmlns="http://www.w3.org/2000/svg"
   xmlns:sodipodi="http://sodipodi.sourceforge.net/DTD/sodipodi-0.dtd"
   xmlns:inkscape="http://www.inkscape.org/namespaces/inkscape"
   id="Layer_1"
   data-name="Layer 1"
   viewBox="0 0 30 30"
   version="1.1"
   sodipodi:docname="scooter.svg"
   inkscape:version="0.92.4 (5da689c313, 2019-01-14)"
   width="30"
   height="30">
  <metadata
     id="metadata25">
    <rdf:RDF>
      <cc:Work
         rdf:about="">
        <dc:format>image/svg+xml</dc:format>
        <dc:type
           rdf:resource="http://purl.org/dc/dcmitype/StillImage" />
        <dc:title>bus</dc:title>
      </cc:Work>
    </rdf:RDF>
  </metadata>
  <sodipodi:namedview
     pagecolor="#ffffff"
     bordercolor="#666666"
     borderopacity="1"
     objecttolerance="10"
     gridtolerance="10"
     guidetolerance="10"
     inkscape:pageopacity="0"
     inkscape:pageshadow="2"
     inkscape:window-width="1262"
     inkscape:window-height="842"
     id="namedview23"
     showgrid="false"
     inkscape:zoom="2"
     inkscape:cx="-99.63287"
     inkscape:cy="-6.3143402"
     inkscape:window-x="572"
     inkscape:window-y="21"
     inkscape:window-maximized="0"
     inkscape:current-layer="Layer_1"
     fit-margin-top="0"
     fit-margin-left="0"
     fit-margin-right="0"
     fit-margin-bottom="0" />
  <defs
     id="defs12">
    <style
       id="style10">.cls-1{fill:none;}</style>
    <style
       id="style2">.cls-1{fill:none;}</style>
  </defs>
  <title
     id="title14">bus</title>
  <circle
     style="fill:#eaeaea;fill-opacity:1"
     id="path27"
     cx="15.223774"
     cy="15"
     r="15" />
  <circle
     style="fill:none;fill-opacity:1;stroke:#71cc98;stroke-width:4;stroke-miterlimit:4;stroke-dasharray:none;stroke-opacity:1"
     id="path837"
     cx="15"
     cy="15"
     r="13" />
  <path
     inkscape:connector-curvature="0"
     id="path10"
     d="m 8.3301431,20.406066 a 1.6399126,1.7308472 0 0 0 1.6074834,1.497639 h 0.012158 a 1.6358585,1.7265681 0 0 0 1.6216705,-1.482661 l 0.01216,-0.092 -3.2575278,-0.02565 z M 22.440689,18.390663 a 1.9439755,2.0517706 0 0 0 -3.089274,0.470691 l -7.666441,-0.05776 A 1.9460026,2.0539101 0 0 0 10.789001,17.892163 L 12.520133,8.183157 14.034363,8.493384 14.216804,7.4771288 11.729572,7.015 11.632269,7.1904339 9.8078913,17.706028 A 1.9439755,2.0517706 0 0 0 7.99973,19.734262 v 0.08131 l 15.00044,0.113392 v -0.08131 a 1.9318131,2.0389336 0 0 0 -0.559481,-1.456991 z m -3.008194,2.0967 a 1.6399126,1.7308472 0 0 0 1.607483,1.497647 h 0.01216 a 1.6358585,1.7265681 0 0 0 1.621671,-1.482669 l 0.01216,-0.092 -3.257528,-0.02565 z"
     style="fill:#00205b;fill-opacity:1;stroke-width:0.20825297" />
</svg>
