<?xml version="1.0" encoding="UTF-8" standalone="no"?>
<svg
   xmlns:dc="http://purl.org/dc/elements/1.1/"
   xmlns:cc="http://creativecommons.org/ns#"
   xmlns:rdf="http://www.w3.org/1999/02/22-rdf-syntax-ns#"
   xmlns:svg="http://www.w3.org/2000/svg"
   xmlns="http://www.w3.org/2000/svg"
   xmlns:sodipodi="http://sodipodi.sourceforge.net/DTD/sodipodi-0.dtd"
   xmlns:inkscape="http://www.inkscape.org/namespaces/inkscape"
   id="Layer_1"
   data-name="Layer 1"
   viewBox="0 0 30 30"
   version="1.1"
   sodipodi:docname="walk.svg"
   inkscape:version="0.92.4 (5da689c313, 2019-01-14)"
   width="30"
   height="30">
  <metadata
     id="metadata25">
    <rdf:RDF>
      <cc:Work
         rdf:about="">
        <dc:format>image/svg+xml</dc:format>
        <dc:type
           rdf:resource="http://purl.org/dc/dcmitype/StillImage" />
        <dc:title>bus</dc:title>
      </cc:Work>
    </rdf:RDF>
  </metadata>
  <sodipodi:namedview
     pagecolor="#ffffff"
     bordercolor="#666666"
     borderopacity="1"
     objecttolerance="10"
     gridtolerance="10"
     guidetolerance="10"
     inkscape:pageopacity="0"
     inkscape:pageshadow="2"
     inkscape:window-width="1262"
     inkscape:window-height="842"
     id="namedview23"
     showgrid="false"
     inkscape:zoom="2"
     inkscape:cx="-99.63287"
     inkscape:cy="-6.3143402"
     inkscape:window-x="572"
     inkscape:window-y="21"
     inkscape:window-maximized="0"
     inkscape:current-layer="Layer_1"
     fit-margin-top="0"
     fit-margin-left="0"
     fit-margin-right="0"
     fit-margin-bottom="0" />
  <defs
     id="defs12">
    <style
       id="style10">.cls-1{fill:none;}</style>
    <style
       id="style2">.cls-1{fill:none;}</style>
  </defs>
  <title
     id="title14">bus</title>
  <circle
     style="fill:#eaeaea;fill-opacity:1"
     id="path27"
     cx="15.223774"
     cy="15"
     r="15" />
  <circle
     style="fill:none;fill-opacity:1;stroke:#616161;stroke-width:4;stroke-miterlimit:4;stroke-dasharray:none;stroke-opacity:1"
     id="path837"
     cx="15"
     cy="15"
     r="13" />
  <path
     inkscape:connector-curvature="0"
     id="path8"
     d="M 18.838677,15.467321 16.565871,13.67042 v 1.724586 l 1.613069,1.275702 a 0.60079148,0.72312414 0 1 0 0.659737,-1.207483 z m -3.9981,-5.678573 A 1.7513639,2.107975 0 1 0 13.089213,7.6807745 1.7513639,2.107975 0 0 0 14.840577,9.788748 Z m 3.345162,9.453826 -2.194591,-1.994732 V 11.896725 L 14.32594,10.585549 v 0 a 0.5973908,0.71903098 0 0 0 -0.680142,0.03959 l -2.272807,2.091603 -0.753822,3.434151 a 0.60305862,0.72585291 0 0 0 0.427356,0.8814 0.65973706,0.79407216 0 0 0 0.154164,0.0232 0.60192508,0.72448852 0 0 0 0.586057,-0.534839 l 0.647266,-2.955257 0.961268,-0.884117 v 3.638808 l 0.0068,-0.01095 a 0.59512366,0.71630221 0 0 0 0.236917,0.605791 l 3.424512,3.118979 0.535045,3.986733 a 0.60079148,0.72312414 0 0 0 0.59399,0.62489 0.6733399,0.81044478 0 0 0 0.08162,-0.0065 0.60079148,0.72312414 0 0 0 0.513506,-0.818625 z m -5.195148,1.166552 -2.47911,3.33046 a 0.60079148,0.72312414 0 0 0 0.894386,0.96462 l 2.703562,-3.631992 0.374075,-2.429969 -1.071224,-0.972808 z"
     style="fill:#00205b;fill-opacity:1;stroke-width:0.12436336" />
</svg>
